<svg viewBox="0 0 400 225" xmlns="http://www.w3.org/2000/svg" role="img" aria-hidden="true">

    <rect width="400" height="225" fill="#f3ece2"/>
    <circle cx="330" cy="40" r="90" fill="#a47764" opacity="0.18"/>
    <circle cx="40" cy="190" r="70" fill="#a47764" opacity="0.14"/>

    <path d="M170,152 L230,152 L216,196 L184,196 Z" fill="#8a5c46"/>
    <rect x="166" y="146" width="68" height="10" rx="4" fill="#8a5c46"/>
<path d="M200,150 C216,111 219.2,65.5 200,85 C180.8,65.5 184,111 200,150Z" fill="#94a67f" transform="rotate(-55 200 150)"/><path d="M200,150 C216,106.80000000000001 219.2,56.39999999999999 200,78 C180.8,56.39999999999999 184,106.80000000000001 200,150Z" fill="#6b8a6f" transform="rotate(-25 200 150)"/><path d="M200,150 C216,114.6 219.2,73.3 200,91 C180.8,73.3 184,114.6 200,150Z" fill="#7a8f6b" transform="rotate(0 200 150)"/><path d="M200,150 C216,110.4 219.2,64.2 200,84 C180.8,64.2 184,110.4 200,150Z" fill="#5f7a52" transform="rotate(25 200 150)"/><path d="M200,150 C216,106.2 219.2,55.099999999999994 200,77 C180.8,55.099999999999994 184,106.2 200,150Z" fill="#94a67f" transform="rotate(55 200 150)"/>
</svg>