<svg viewBox="0 0 400 225" xmlns="http://www.w3.org/2000/svg" role="img" aria-hidden="true">

    <rect width="400" height="225" fill="#f3ece2"/>
    <circle cx="330" cy="40" r="90" fill="#a47764" opacity="0.18"/>
    <circle cx="40" cy="190" r="70" fill="#a47764" opacity="0.14"/>

    <path d="M170,152 L230,152 L216,196 L184,196 Z" fill="#8a5c46"/>
    <rect x="166" y="146" width="68" height="10" rx="4" fill="#8a5c46"/>
<path d="M195,150 Q162.5,110 130,100" stroke="#6b8a6f" stroke-width="3" fill="none"/><path d="M172.25,119.13490213717448 C182.25,107.13490213717448 184.25,93.13490213717448 172.25,99.13490213717448 C160.25,93.13490213717448 162.25,107.13490213717448 172.25,119.13490213717448Z" fill="#6b8a6f" transform="rotate(-20 172.25 119.13490213717448)"/><path d="M152.75,104.13490213717448 C162.75,92.13490213717448 164.75,78.13490213717448 152.75,84.13490213717448 C140.75,78.13490213717448 142.75,92.13490213717448 152.75,104.13490213717448Z" fill="#6b8a6f" transform="rotate(-20 152.75 104.13490213717448)"/><path d="M133.25,100.15348302439654 C143.25,88.15348302439654 145.25,74.15348302439654 133.25,80.15348302439654 C121.25,74.15348302439654 123.25,88.15348302439654 133.25,100.15348302439654Z" fill="#6b8a6f" transform="rotate(-20 133.25 100.15348302439654)"/><path d="M205,150 Q237.5,110 270,110" stroke="#7a8f6b" stroke-width="3" fill="none"/><path d="M227.75,122.63490213717448 C237.75,110.63490213717448 239.75,96.63490213717448 227.75,102.63490213717448 C215.75,96.63490213717448 217.75,110.63490213717448 227.75,122.63490213717448Z" fill="#7a8f6b" transform="rotate(0 227.75 122.63490213717448)"/><path d="M247.25,110.63490213717448 C257.25,98.63490213717448 259.25,84.63490213717448 247.25,90.63490213717448 C235.25,84.63490213717448 237.25,98.63490213717448 247.25,110.63490213717448Z" fill="#7a8f6b" transform="rotate(0 247.25 110.63490213717448)"/><path d="M266.75,109.65348302439654 C276.75,97.65348302439654 278.75,83.65348302439654 266.75,89.65348302439654 C254.75,83.65348302439654 256.75,97.65348302439654 266.75,109.65348302439654Z" fill="#7a8f6b" transform="rotate(0 266.75 109.65348302439654)"/><path d="M200,150 Q200,110 200,80" stroke="#5f7a52" stroke-width="3" fill="none"/><path d="M200,112.13490213717448 C210,100.13490213717448 212,86.13490213717448 200,92.13490213717448 C188,86.13490213717448 190,100.13490213717448 200,112.13490213717448Z" fill="#5f7a52" transform="rotate(20 200 112.13490213717448)"/><path d="M200,91.13490213717448 C210,79.13490213717448 212,65.13490213717448 200,71.13490213717448 C188,65.13490213717448 190,79.13490213717448 200,91.13490213717448Z" fill="#5f7a52" transform="rotate(20 200 91.13490213717448)"/><path d="M200,81.15348302439654 C210,69.15348302439654 212,55.153483024396536 200,61.153483024396536 C188,55.153483024396536 190,69.15348302439654 200,81.15348302439654Z" fill="#5f7a52" transform="rotate(20 200 81.15348302439654)"/>
</svg>