<svg viewBox="0 0 400 225" xmlns="http://www.w3.org/2000/svg" role="img" aria-hidden="true">

    <rect width="400" height="225" fill="#f3ece2"/>
    <circle cx="330" cy="40" r="90" fill="#a47764" opacity="0.18"/>
    <circle cx="40" cy="190" r="70" fill="#a47764" opacity="0.14"/>

    <path d="M170,152 L230,152 L216,196 L184,196 Z" fill="#8a5c46"/>
    <rect x="166" y="146" width="68" height="10" rx="4" fill="#8a5c46"/>
<path d="M200,150 C216,112.80000000000001 219.2,69.39999999999999 200,88 C180.8,69.39999999999999 184,112.80000000000001 200,150Z" fill="#6b8a6f" transform="rotate(-55 200 150)"/><path d="M200,150 C216,108.6 219.2,60.3 200,81 C180.8,60.3 184,108.6 200,150Z" fill="#7a8f6b" transform="rotate(-25 200 150)"/><path d="M200,150 C216,116.4 219.2,77.2 200,94 C180.8,77.2 184,116.4 200,150Z" fill="#5f7a52" transform="rotate(0 200 150)"/><path d="M200,150 C216,112.2 219.2,68.1 200,87 C180.8,68.1 184,112.2 200,150Z" fill="#94a67f" transform="rotate(25 200 150)"/><path d="M200,150 C216,108 219.2,59 200,80 C180.8,59 184,108 200,150Z" fill="#6b8a6f" transform="rotate(55 200 150)"/>
</svg>