<svg viewBox="0 0 400 225" xmlns="http://www.w3.org/2000/svg" role="img" aria-hidden="true">

    <rect width="400" height="225" fill="#ebe0d3"/>
    <circle cx="330" cy="40" r="90" fill="#8a5c46" opacity="0.18"/>
    <circle cx="40" cy="190" r="70" fill="#8a5c46" opacity="0.14"/>

    <path d="M170,152 L230,152 L216,196 L184,196 Z" fill="#cdb8a0"/>
    <rect x="166" y="146" width="68" height="10" rx="4" fill="#cdb8a0"/>
<path d="M200,150 C216,115.80000000000001 219.2,75.89999999999999 200,93 C180.8,75.89999999999999 184,115.80000000000001 200,150Z" fill="#94a67f" transform="rotate(-55 200 150)"/><path d="M200,150 C216,111.6 219.2,66.8 200,86 C180.8,66.8 184,111.6 200,150Z" fill="#6b8a6f" transform="rotate(-25 200 150)"/><path d="M200,150 C216,107.4 219.2,57.7 200,79 C180.8,57.7 184,107.4 200,150Z" fill="#7a8f6b" transform="rotate(0 200 150)"/><path d="M200,150 C216,115.2 219.2,74.6 200,92 C180.8,74.6 184,115.2 200,150Z" fill="#5f7a52" transform="rotate(25 200 150)"/><path d="M200,150 C216,111 219.2,65.5 200,85 C180.8,65.5 184,111 200,150Z" fill="#94a67f" transform="rotate(55 200 150)"/>
</svg>