<svg viewBox="0 0 400 225" xmlns="http://www.w3.org/2000/svg" role="img" aria-hidden="true">

    <rect width="400" height="225" fill="#f3ece2"/>
    <circle cx="330" cy="40" r="90" fill="#a47764" opacity="0.18"/>
    <circle cx="40" cy="190" r="70" fill="#a47764" opacity="0.14"/>

    <path d="M170,152 L230,152 L216,196 L184,196 Z" fill="#8a5c46"/>
    <rect x="166" y="146" width="68" height="10" rx="4" fill="#8a5c46"/>
<ellipse cx="234.0" cy="150.0" rx="16" ry="10" fill="#5f7a52" transform="rotate(0 234.0 150.0)"/><ellipse cx="217.0" cy="135.3" rx="16" ry="10" fill="#94a67f" transform="rotate(60 217.0 135.3)"/><ellipse cx="183.0" cy="135.3" rx="16" ry="10" fill="#6b8a6f" transform="rotate(120 183.0 135.3)"/><ellipse cx="166.0" cy="150.0" rx="16" ry="10" fill="#7a8f6b" transform="rotate(180 166.0 150.0)"/><ellipse cx="183.0" cy="164.7" rx="16" ry="10" fill="#5f7a52" transform="rotate(240 183.0 164.7)"/><ellipse cx="217.0" cy="164.7" rx="16" ry="10" fill="#94a67f" transform="rotate(300 217.0 164.7)"/><ellipse cx="220.9" cy="134.6" rx="16" ry="10" fill="#94a67f" transform="rotate(18 220.9 134.6)"/><ellipse cx="200.0" cy="127.0" rx="16" ry="10" fill="#6b8a6f" transform="rotate(90 200.0 127.0)"/><ellipse cx="179.1" cy="134.6" rx="16" ry="10" fill="#7a8f6b" transform="rotate(162 179.1 134.6)"/><ellipse cx="187.1" cy="146.9" rx="16" ry="10" fill="#5f7a52" transform="rotate(234 187.1 146.9)"/><ellipse cx="212.9" cy="146.9" rx="16" ry="10" fill="#94a67f" transform="rotate(306 212.9 146.9)"/>
</svg>